<?xml version="1.0" encoding="utf-8"?>
<svg version="1.1" xmlns:xlink="http://www.w3.org/1999/xlink" width="142px" height="123px" xmlns="http://www.w3.org/2000/svg">
  <g transform="matrix(1 0 0 1 -618 -152 )">
    <path d="M 118.518340348767 67.5276988636364  C 119.65684505913 67.9936079545455  120.226097414311 68.8380681818182  120 70.0610795454545  L 120 97.8409090909091  C 120.226097414311 104.771306818182  117.82100621367 110.697088068182  113.010823812387 115.618252840909  C 108.200641411104 120.539417613636  102.408498697134 123  95.634395670475 123  L 24.5917017438364 123  C 17.8175987171778 123  12.0254560032071 120.539417613636  7.21527360192423 115.618252840909  C 2.40509120064141 110.697088068182  0 104.771306818182  0 97.8409090909091  L 0 25.1590909090909  C 0 18.2286931818182  2.40509120064141 12.3029119318182  7.21527360192423 7.38174715909091  C 12.0254560032071 2.46058238636362  17.8175987171778 0  24.5917017438364 0  L 95.634395670475 0  C 99.2206855081179 0  102.550811785929 0.727982954545448  105.624774503909 2.18394886363636  C 106.478653036681 2.59161931818181  106.990980156344 3.26136363636363  107.161755862898 4.19318181818181  C 107.332531569453 5.18323863636363  107.076368009621 6.02769886363636  106.393265183404 6.7265625  L 102.20926037282 11.0071022727273  C 101.640008017639 11.5894886363636  100.98536780918 11.8806818181818  100.245339747444 11.8806818181818  C 100.07456404089 11.8806818181818  99.8184004810583 11.8224431818182  99.4768490679495 11.7059659090909  C 98.1675686510323 11.3565340909091  96.8867508518741 11.1818181818182  95.634395670475 12  L 24.5917017438364 12  C 20.8346361996392 11.1818181818182  17.6183603928643 12.5504261363636  14.9428743235117 15.2876420454545  C 12.2673882541592 18.0248579545454  10.9296452194829 21.3153409090909  11 25.1590909090909  L 11 97.8409090909091  C 10.9296452194829 101.684659090909  12.2673882541592 104.975142045455  14.9428743235117 107.712357954545  C 17.6183603928643 110.449573863636  20.8346361996392 111.818181818182  24.5917017438364 111  L 95.634395670475 111  C 99.3914612146723 111.818181818182  102.607737021447 110.449573863636  105.2832230908 107.712357954545  C 107.958709160152 104.975142045455  109.296452194829 101.684659090909  109 97.8409090909091  L 109 75.6519886363636  C 109.296452194829 74.8948863636364  109.55261575466 74.2542613636364  110.064942874324 73.7301136363636  L 115.529765484065 68.1392045454545  C 116.099017839246 67.5568181818182  116.753658047705 67.265625  117.493686109441 67.265625  C 117.83523752255 67.265625  118.176788935658 67.3529829545455  118.518340348767 67.5276988636364  Z M 142 22.3636363636364  C 142 24.2855113636364  141.316897173782 25.9453125  139.950691521347 27.3430397727273  L 70.4449789536981 98.4524147727273  C 69.0787733012628 99.8501420454545  67.4564040889958 100.549005681818  65.5778713168972 100.549005681818  C 63.6993385447986 100.549005681818  62.0769693325316 99.8501420454545  60.7107636800962 98.4524147727273  L 23.993986770896 60.8884943181818  C 22.6277811184606 59.4907670454545  21.9446782922429 57.8309659090909  21.9446782922429 55.9090909090909  C 21.9446782922429 53.9872159090909  22.6277811184606 52.3274147727273  23.993986770896 50.9296875  L 33.3866506313891 41.3203125  C 34.7528562838244 39.9225852272727  36.3752254960914 39.2237215909091  38.25375826819 39.2237215909091  C 40.1322910402886 39.2237215909091  41.7546602525556 39.9225852272727  43.120865904991 41.3203125  L 65.5778713168972 64.2954545454545  L 120.823812387252 7.77485795454546  C 122.190018039687 6.37713068181819  123.812387251954 5.67826704545454  125.690920024053 5.67826704545454  C 127.569452796152 5.67826704545454  129.191822008419 6.37713068181819  130.558027660854 7.77485795454546  L 139.950691521347 17.3842329545455  C 141.316897173782 18.7819602272727  142 20.4417613636364  142 22.3636363636364  Z " fill-rule="nonzero" fill="#0bac08" stroke="none" transform="matrix(1 0 0 1 618 152 )" />
  </g>
</svg>