<?xml version="1.0" encoding="utf-8"?>
<svg version="1.1" xmlns:xlink="http://www.w3.org/1999/xlink" width="62px" height="59px" xmlns="http://www.w3.org/2000/svg">
  <g transform="matrix(1 0 0 1 -1097 -18 )">
    <path d="M 61.2330729166667 48.07578125  C 61.7443576388889 48.6596354166667  62 49.3510416666667  62 50.15  L 62 56.05  C 62 56.8489583333333  61.7443576388889 57.5403645833333  61.2330729166667 58.12421875  C 60.7217881944445 58.7080729166667  60.1163194444445 59  59.4166666666667 59  L 2.58333333333333 59  C 1.88368055555556 59  1.27821180555556 58.7080729166667  0.766927083333333 58.12421875  C 0.255642361111111 57.5403645833333  0 56.8489583333333  0 56.05  L 0 50.15  C 0 49.3510416666667  0.255642361111111 48.6596354166667  0.766927083333333 48.07578125  C 1.27821180555556 47.4919270833333  1.88368055555556 47.2  2.58333333333333 47  L 59.4166666666667 47  C 60.1163194444445 47.2  60.7217881944445 47.4919270833333  61.2330729166667 48.07578125  Z M 61.2330729166667 24.47578125  C 61.7443576388889 25.0596354166667  62 25.7510416666667  62 26.55  L 62 32.45  C 62 33.2489583333333  61.7443576388889 33.9403645833333  61.2330729166667 34.52421875  C 60.7217881944445 35.1080729166667  60.1163194444445 35.4  59.4166666666667 35  L 2.58333333333333 35  C 1.88368055555556 35.4  1.27821180555556 35.1080729166667  0.766927083333333 34.52421875  C 0.255642361111111 33.9403645833333  0 33.2489583333333  0 32.45  L 0 26.55  C 0 25.7510416666667  0.255642361111111 25.0596354166667  0.766927083333333 24.47578125  C 1.27821180555556 23.8919270833333  1.88368055555556 23.6  2.58333333333333 24  L 59.4166666666667 24  C 60.1163194444445 23.6  60.7217881944445 23.8919270833333  61.2330729166667 24.47578125  Z M 61.2330729166667 0.875781250000003  C 61.7443576388889 1.45963541666666  62 2.15104166666666  62 2.95  L 62 8.85  C 62 9.64895833333333  61.7443576388889 10.3403645833333  61.2330729166667 10.92421875  C 60.7217881944445 11.5080729166667  60.1163194444445 11.8  59.4166666666667 12  L 2.58333333333333 12  C 1.88368055555556 11.8  1.27821180555556 11.5080729166667  0.766927083333333 10.92421875  C 0.255642361111111 10.3403645833333  0 9.64895833333333  0 8.85  L 0 2.95  C 0 2.15104166666666  0.255642361111111 1.45963541666666  0.766927083333333 0.875781250000003  C 1.27821180555556 0.29192708333333  1.88368055555556 0  2.58333333333333 0  L 59.4166666666667 0  C 60.1163194444445 0  60.7217881944445 0.29192708333333  61.2330729166667 0.875781250000003  Z " fill-rule="nonzero" fill="#e0d3c1" stroke="none" transform="matrix(1 0 0 1 1097 18 )" />
  </g>
</svg>